<?xml version="1.0" encoding="utf-8"?>
<svg viewBox="0 0 500 500" xmlns="http://www.w3.org/2000/svg">
  <defs>
    <linearGradient gradientUnits="userSpaceOnUse" x1="171.758" y1="183.268" x2="171.758" y2="280.94" id="gradient-1" gradientTransform="matrix(0.569233, -0.822176, 0.405133, 0.280495, -29.417459, 336.194229)">
      <stop offset="0" style="stop-color: rgb(239, 34, 61);"/>
      <stop offset="1" style="stop-color: rgb(217, 4, 41);"/>
    </linearGradient>
    <linearGradient gradientUnits="userSpaceOnUse" x1="187.42" y1="79.025" x2="187.42" y2="176.657" id="gradient-0" gradientTransform="matrix(0.554249, -0.832351, 0.657831, 0.438039, 22.21612, 234.349064)">
      <stop offset="0" style="stop-color: rgba(239, 35, 59, 1)"/>
      <stop offset="1" style="stop-color: rgb(217, 4, 41);"/>
    </linearGradient>
    <linearGradient gradientUnits="userSpaceOnUse" x1="221.845" y1="176.933" x2="221.845" y2="252" id="gradient-2" gradientTransform="matrix(0.800882, 0.598825, -0.467257, 0.624924, 143.399206, -27.350015)">
      <stop offset="0" style="stop-color: rgb(43, 45, 66);"/>
      <stop offset="1" style="stop-color: rgb(141, 153, 174);"/>
    </linearGradient>
    <linearGradient gradientUnits="userSpaceOnUse" x1="138.31" y1="108.06" x2="138.31" y2="183" id="gradient-3" gradientTransform="matrix(-0.935106, -0.354369, 0.32405, -0.855103, 231.325982, 292.449594)">
      <stop offset="0" style="stop-color: rgb(43, 45, 66);"/>
      <stop offset="1" style="stop-color: rgb(141, 153, 174);"/>
    </linearGradient>
  </defs>
  <g fill="#10d4b0" transform="matrix(2.1024389266967773, 0, 0, 2.1024389266967773, -113.63919236718402, -135.94154560478842)">
    <path d="M172.50 280.30 c-2.45 -0.65 -4.90 -1.95 -16.75 -8.80 -4.10 -2.40 -12.80 -7.40 -19.25 -11.10 -6.45 -3.70 -13.45 -7.75 -15.50 -8.95 -2.05 -1.20 -5.45 -3.90 -7.55 -5.95 -3.15 -3.15 -4.05 -4.40 -5.40 -7.60 -0.85 -2.15 -1.80 -5.55 -2.05 -7.50 -0.60 -4.50 -0.65 -46.75 -0.10 -47.10 0.25 -0.15 1.20 0.25 2.15 0.90 0.95 0.65 8.65 5.15 17.20 10.05 8.55 4.90 18.30 10.55 21.75 12.50 20.55 11.90 26.35 15.25 31.75 18.40 8.60 5.05 9.25 5.35 11.50 5.35 1.70 0 4.35 1.35 16.70 8.45 17.20 9.90 19.90 11.10 26.45 11.45 2.50 0.10 4.60 0.40 4.60 0.60 0 0.50 -4.95 3.75 -10.50 6.90 -0.95 0.55 -3.75 2.15 -6.25 3.60 -2.45 1.45 -5.75 3.30 -7.25 4.15 -1.50 0.80 -2.95 1.65 -3.25 1.90 -0.40 0.30 -6.30 3.70 -14.75 8.60 -4 2.30 -7.40 3.80 -9.50 4.30 -3.05 0.70 -11.20 0.65 -14 -0.15z" style="fill: url('#gradient-1');"/>
    <path d="M249.50 174.35 c-2.35 -1.35 -8.65 -5 -14 -8.10 -12.90 -7.40 -23.60 -13.60 -38.75 -22.35 -24.70 -14.25 -23.85 -13.80 -26.65 -14.15 -2 -0.25 -4.05 -1.15 -8 -3.50 -28.35 -16.60 -29.50 -17.10 -37.40 -16.45 -2.40 0.20 -4.20 0.15 -4.20 -0.10 0 -0.45 2.10 -1.75 18.25 -11.10 34 -19.70 32.80 -19.10 40.25 -19.45 8.80 -0.40 6.70 -1.45 54.95 26.55 12.25 7.10 15.75 10.55 18.85 18.55 l1.35 3.50 0.15 24.35 c0.10 13.40 0 24.45 -0.20 24.55 -0.20 0.10 -2.25 -0.90 -4.60 -2.30z" style="fill: url('#gradient-0');"/>
  </g>
  <g transform="matrix(2.1024389266967773, 0, 0, 2.1024389266967773, -386.716100733222, -243.09123592214635)">
    <g fill="#073148" transform="matrix(1, 0, 0, 1, 129.885775, 50.964471)">
      <path d="M225.05 250.70 c-4.60 -1.55 -4.10 -1.30 -20.30 -10.60 -18.10 -10.35 -16.55 -9.25 -13.35 -9.65 3.60 -0.45 5.90 -2.35 8 -6.45 2.70 -5.45 3.10 -8.80 3.10 -29 0.05 -18.20 0.15 -19.10 1.80 -17.55 0.25 0.25 7.55 4.55 16.20 9.55 18.75 10.90 19.30 11.25 23.55 15.50 9.35 9.45 12.60 22.50 8.45 33.65 -2.10 5.55 -7.30 11.55 -12.50 14.30 -2.60 1.40 -3.35 1.55 -7.05 1.55 -3.15 0 -5.15 -0.35 -7.90 -1.30z" style="fill: url('#gradient-2');"/>
      <path d="M144.45 175.90 c-25.15 -14.55 -26.35 -15.35 -30.95 -21.05 -9.70 -11.85 -10.40 -27.25 -1.80 -38.25 4.30 -5.45 8.70 -8.10 14.30 -8.45 6.75 -0.50 10.50 0.90 23.90 8.65 23.75 13.80 22.05 12.70 19.80 12.70 -4.75 0 -8.65 3.80 -10.70 10.40 -1.50 4.85 -2.15 15.65 -1.80 30.50 0.15 6.90 0.10 12.60 -0.10 12.60 -0.25 0 -5.90 -3.20 -12.65 -7.10z" style="fill: url('#gradient-3');"/>
    </g>
  </g>
  <path d="M 260.261 222.204 L 281.864 270.812 L 238.657 270.812 L 260.261 222.204 Z" style="fill: rgb(43, 45, 66); stroke: rgba(0, 0, 0, 0);"/>
</svg>